<svg id="Layer_1" data-name="Layer 1" xmlns="http://www.w3.org/2000/svg" viewBox="0 0 330.81 292.47"><defs></defs><path class="cls-1" d="M105.05,174.45c-.86,11.27-1.51,22.61-2.53,33.82-.7,7.78-1.21,12.42-2.45,14.14s-2.95.93-6-1.82-7-7.1-12.44-12.55-11.91-11.79-19.4-18.86c-8.18-7.71-15.89-15.85-23.39-24.3-4.49-5.32-8.17-10-10.22-14.25a28.24,28.24,0,0,1-3-11.85,23.63,23.63,0,0,1,1.75-9.62,25.11,25.11,0,0,1,4.32-7,22.23,22.23,0,0,1,15-7.52c-6.11-5.19-10.49-11.4-12.52-19.18a51,51,0,0,1-.34-24.24A82.89,82.89,0,0,1,43.94,46.48,98.94,98.94,0,0,1,58.86,27c-3.5-4.28-7.13-5.56-11.49-4.45a37.94,37.94,0,0,0-12.63,6.23,111.59,111.59,0,0,0-15,13.2,7.25,7.25,0,0,1-1.26,1.32c-.19.11-.12-.05.21-.51s1.18-1.54,2.6-3.26a72.49,72.49,0,0,1,6.18-6.41,79.91,79.91,0,0,1,9.16-7.39,40.82,40.82,0,0,1,10.67-5.41,16,16,0,0,1,10.95.13,9.35,9.35,0,0,1,3.52,3.62,17,17,0,0,1,3.35-2.63q9.57-6.83,16-6.21A11.08,11.08,0,0,1,90.5,21.8c2,3.9,2.7,9.06,2.37,15.42A50.35,50.35,0,0,1,87.1,57.08c-2.84,5.62-5.26,8.5-7.54,8.43S75,63.69,73,60.36A60.89,60.89,0,0,1,67.2,47.83c-1.68-5-3.32-9.56-4.91-13.7A69.78,69.78,0,0,0,48.56,52.5a58.78,58.78,0,0,0-6.94,23.65c-.6,8.63.38,15.73,2.49,21.26a55.9,55.9,0,0,0,7.22,13.5,47.84,47.84,0,0,0,10.09,10.23c.61,1,0,1.59-1.93,1.76a31,31,0,0,0-16.57,7.43A19.63,19.63,0,0,0,36.62,142,21.9,21.9,0,0,0,39,155.42a93.55,93.55,0,0,0,10.16,15.43c4.08,5.23,8.6,10.29,13.34,15.4s9.13,9.57,13.07,13.5c5.88,5.9,10.2,10.46,13.25,13.35s5.19,4.67,6.66,5.14,2.4-.13,3-1.93a38.45,38.45,0,0,0,1.44-7.57c1.16-11.55,2.47-23,4-34.54C104.33,174.29,104.57,174.34,105.05,174.45ZM88.32,27.5c-1.81-3.81-4.68-5.77-8.62-5.83s-9.06,3.25-15.14,9.94c.79,2.86,1.69,6,2.73,9.41s2.18,6.66,3.38,9.67,2.42,5.66,3.6,7.9,2.33,3.4,3.18,3.58c1.39.29,3.14-.48,5-2.76a31.89,31.89,0,0,0,4.85-8.84A44.66,44.66,0,0,0,90,38.83,21.33,21.33,0,0,0,88.32,27.5Z"/><path class="cls-1" d="M162.45,43c2.84,6.47,4.65,10.12,5.3,16.22a109,109,0,0,1,0,21c-.68,7.84-1.71,16.23-3.08,21.13s-2.43,7.92-3.15,9c-1.34,1.9-2.5,3.43-3.48,4.56s-1.74.48-2.24-2a7,7,0,0,1-.05-3.4,4.59,4.59,0,0,1,1.09-1.77,2.7,2.7,0,0,1,1.63-.79,4.46,4.46,0,0,0,1.53-.45c.72-.26,1.65-2.39,2.78-6.34a75.22,75.22,0,0,0,2.72-14.35A135.21,135.21,0,0,0,166.2,67,58,58,0,0,0,163.26,51c-2-6.41-4-10.82-6.4-13.31s-4.72-3.55-7.27-2.81-5.27,3-8.11,6.79A62.54,62.54,0,0,0,133.72,56a92.08,92.08,0,0,0-5.18,19.54A79.65,79.65,0,0,0,128,96.69a211.34,211.34,0,0,0,5,27.71c2,8.15,4,15.95,6,23.28s3.78,14.69,5.46,22A203.62,203.62,0,0,1,148.16,193a162.87,162.87,0,0,1,1,22.58,129.84,129.84,0,0,1-1.73,18.34,92,92,0,0,1-3.22,13.36c-1.23,3.65-2.5,6.12-3.92,7.37-2.19,1.92-4.13,1.86-6.23-.16s-4.23-5.22-6.53-9.57-4.62-9.37-7-15.06-4.49-11.3-6.31-16.88a81.26,81.26,0,0,1-3.62-14.73,36.81,36.81,0,0,1-.14-10.49c.45-2.73,1.25-4.67,2.35-5.79a2.62,2.62,0,0,1,3.46-.49,5.41,5.41,0,0,1,2.36,2.4,3.21,3.21,0,0,1,.3,2.39,1.73,1.73,0,0,1-1.39,1.06c-.69.12-1.56-.39-2.58-1.19s-1.87,0-2.33,2.15a32.45,32.45,0,0,0-.29,8.68,77.32,77.32,0,0,0,2.06,12.24,84.33,84.33,0,0,0,4,12.33A148.71,148.71,0,0,0,126,238c2.17,3.83,4,6.44,5.57,7.78s2.91,1.47,4.1.38a13.31,13.31,0,0,0,3.09-5.63c1.78-5.51,3.15-13,4.17-22.11a113.26,113.26,0,0,0-.87-29.71,191.89,191.89,0,0,0-6.28-26.9c-2.95-9.25-5.79-18.61-8.56-27.88a205.08,205.08,0,0,1-6.63-30.63,111.25,111.25,0,0,1,.93-35.85c2.09-10.57,4.6-21.86,10.22-31.52,4-6.86,8-10.69,11.66-11.74s6.84.16,10.08,3.86A58.49,58.49,0,0,1,162.45,43Z"/><path class="cls-1" d="M303.58,152.84l1.95-.41c-2.79,2.33-6.83,5.44-11.69,9.4-4.23,3.44-9.63,8-16,13.75-7.93,7.2-15.61,14.9-22.77,22.67-6.78,7.37-13.47,15.22-19.85,23.1-4.1,5.07-6.44,8-7.24,8.6s-.38-.73,1.17-4,3.88-7.78,7.07-13.51c2.74-4.93,6.54-11.41,11.49-19.28,5.41-8.59,11.07-17.29,17-25.37a292.63,292.63,0,0,0,18.72-27.89,192.66,192.66,0,0,0,13.73-29.38,150.71,150.71,0,0,0,7-26.06,79,79,0,0,0,1.14-18.73A50.24,50.24,0,0,0,300.88,48c-2.27-4.83-4.81-8.19-7.34-10.09s-4.88-2.07-7.3-.18S281.5,44,278.78,51.32c-3.21,8.68-5.31,18.3-7.3,27.3C268.8,90.72,265.61,103,262.2,115a322.19,322.19,0,0,1-13.75,38.55c-5.23,12.21-11.77,23.83-17.75,35.67-5.5,10.88-8.83,17.29-10.4,19s-1.07-1.1,1.54-8.51c.87-2.47,2.41-6.22,4.7-11.21s5.07-10.84,8.07-17.1,6-13.25,9-21a188.63,188.63,0,0,0,7.27-23.73,133.83,133.83,0,0,0,3.42-23.6,68.85,68.85,0,0,0-1.73-20.41c-.75-3.2-2-3.9-3.82-2s-3.8,5.39-6.19,10.62-5,11.76-8.06,19.57-6.08,15.92-9.19,24.18-6.14,16.28-9,23.93-5.26,14-7.14,19.07c-2.2,5.9-4.76,12.4-7.25,19.66s-5,14.73-7.49,22.42-4.92,15.33-7.28,22.92-4.67,14.46-6.81,20.54c-2.31,6.57-4.27,11.56-6.12,14.83s-3.16,5-3.82,5.32c-1.41.63-2.89-.16-4.06-2.66-1.4-3-2.46-10.49-3.29-17.58-.9-7.58-1.56-16.54-1.79-26.79a209.68,209.68,0,0,1,.62-23.88c.35-3.89.79-7.43,1.26-10.9s1-6.9,1.57-10.27c.19-.8.38-1.14.58-1,.19-.1.43-.39.72-.59a1.69,1.69,0,0,1,.58.66,2.77,2.77,0,0,1,.13,2c-1.36,8.19-2.36,14.85-3,22.77s-.82,15.7-.72,23.25c.07,5.34.25,10.21.51,14.61a116.49,116.49,0,0,0,1.23,11.63c.69,4.33,1.43,6.65,2.25,7.88s1.68,1.64,2.59,1.24a7.41,7.41,0,0,0,2.84-3.11,48.36,48.36,0,0,0,3.07-6.48c1.2-3,2.44-6.58,3.76-10.75s2.84-9.26,4.68-15.27q2.12-7,4.61-15c1.66-5.33,3.3-10.48,4.81-15.4,1.59-5.13,3.24-10.32,5-15.5s3.4-10.11,4.9-15.22c3.14-11.07,6.19-22.2,8.77-33.3,2.66-11.45,5.07-23.28,7-34.85,2-11.76,3.58-23.9,4.75-35.78,1.11-11.21,1.94-22.69,2.26-34.08a20.12,20.12,0,0,1-4.07,1.57c-2,.6-3.43,1.21-4.1,1.33a12.36,12.36,0,0,0-2.16.37,3.61,3.61,0,0,1-2.19,0,43.7,43.7,0,0,1-9.11.37,16.48,16.48,0,0,0-4.41,1.23,13,13,0,0,0-4.18,2.9A28.47,28.47,0,0,0,191.87,53c-.61,1.44-1.16,2.84-1.63,4.19s-.92,2.84-1.34,4.43a57.87,57.87,0,0,0-1.75,10.69,63.91,63.91,0,0,0,.29,11.41,5.89,5.89,0,0,1-.08,2.45,8.18,8.18,0,0,1-.57,1.58.81.81,0,0,1-.77.11c-.24-.09-.47-.48-.5-1.26a68.59,68.59,0,0,1-.42-16,73.81,73.81,0,0,1,2.74-13.74,45,45,0,0,1,4.43-10.34c1.91-3.11,3.68-5.36,5.47-6.36a20.4,20.4,0,0,1,2.58-1.19,9.53,9.53,0,0,1,3.15-.62A17.79,17.79,0,0,0,206.7,38a15.67,15.67,0,0,1,3.44-.31,21.77,21.77,0,0,0,3.48-.21l3.47-.47a12.43,12.43,0,0,0,6.32-3.14,17.26,17.26,0,0,0,4.48-6.46c1.13-2.75,1.65-6.95,1.26-12.37a20,20,0,0,1,.2-5.34c.25-.92.79-1.39,1.27-1.24s1,.91,1.47,2.22a23.35,23.35,0,0,1,1.08,5.12,258.41,258.41,0,0,1,.55,26.66c-.26,9.55-1,19.23-2,28.72-1.09,9.8-2.49,19.66-4.08,29.37C226,110.6,224,120.75,221.8,130.74q-1.14,4.57-2.28,9.43t-2.45,9.67c2.84-8.32,5.72-16.84,8.57-25.44s5.56-16.59,8.15-23.85,5-13.46,7.33-18.57,4.53-8.32,6.66-9.74,3.8-1.59,5.26-.66a11.44,11.44,0,0,1,3.82,4.64,28.85,28.85,0,0,1,2.45,8.23,83.79,83.79,0,0,1,1,10.23,119.42,119.42,0,0,1-2.75,29c3.4-14.3,6.58-28.66,10-42.94,2.48-10.42,4.86-20.95,7.87-31.22,2.37-8.08,4.56-13.73,7-17.17s5-4.49,8.08-3.62,6.48,3.57,10.17,7.88A57.67,57.67,0,0,1,310.94,55a60,60,0,0,1,3.25,18.46,86.64,86.64,0,0,1-2.6,22.78,126.54,126.54,0,0,1-8.87,24.38,162.74,162.74,0,0,1-13.17,22.48c-4.76,6.83-9.49,12.53-13.9,17.77s-7.54,9.23-9.5,11.82c-5.25,6.81-10,13.35-14.28,19.54s-7.77,11.53-10.52,16-4.56,7.58-5.48,9.48-.63,2.06.94.56c.73-.69,2.14-2.34,4.3-4.89s4.78-5.6,7.91-9.13,6.58-7.31,10.38-11.3,7.72-7.93,11.74-11.83A422.47,422.47,0,0,1,304,152.8Z"/></svg>