<svg id="Layer_1" data-name="Layer 1" xmlns="http://www.w3.org/2000/svg" viewBox="0 0 595.28 841.89"><defs><style>.cls-1{fill:none;stroke:#e0f2f2;stroke-miterlimit:10;}.cls-2{fill:#67cbde;}</style></defs><path class="cls-1" d="M436.37,239.72h0a89.34,89.34,0,0,0-126.35,0L297.64,252.1l-12.38-12.38a89.36,89.36,0,0,0-126.36,0h0a89.34,89.34,0,0,0,0,126.35l12.38,12.38L297.64,504.81,424,378.45l12.38-12.38A89.33,89.33,0,0,0,436.37,239.72Z"/><path class="cls-2" d="M237.28,387.49c-.85,11.27-1.51,22.61-2.52,33.83-.71,7.78-1.22,12.42-2.46,14.14s-3,.93-6-1.82-7-7.1-12.43-12.56S202,409.3,194.5,402.23c-8.18-7.71-15.89-15.85-23.4-24.3-4.49-5.32-8.17-10-10.22-14.25a28.4,28.4,0,0,1-3-11.86,23.41,23.41,0,0,1,1.76-9.61,24.86,24.86,0,0,1,4.31-7,22.23,22.23,0,0,1,15-7.52c-6.1-5.19-10.49-11.41-12.52-19.18a51,51,0,0,1-.34-24.25,82.71,82.71,0,0,1,10.13-24.75,98.93,98.93,0,0,1,14.91-19.45c-3.5-4.27-7.13-5.55-11.48-4.44A38,38,0,0,0,167,241.87,111.55,111.55,0,0,0,152,255.07a8.58,8.58,0,0,1-1.26,1.32c-.19.11-.13-.06.2-.51s1.18-1.54,2.6-3.27a74,74,0,0,1,6.18-6.4,79.19,79.19,0,0,1,9.17-7.39,41.11,41.11,0,0,1,10.66-5.42,16.09,16.09,0,0,1,11,.13,9.47,9.47,0,0,1,3.53,3.63,16.78,16.78,0,0,1,3.35-2.64c6.38-4.55,11.71-6.62,16-6.2a11,11,0,0,1,9.3,6.53c2,3.9,2.7,9.06,2.37,15.42a50.1,50.1,0,0,1-5.77,19.85c-2.83,5.63-5.25,8.51-7.54,8.44s-4.53-1.83-6.61-5.15a60.38,60.38,0,0,1-5.74-12.53c-1.68-5-3.33-9.56-4.92-13.7a70,70,0,0,0-13.72,18.37,58.75,58.75,0,0,0-7,23.65c-.59,8.63.38,15.73,2.49,21.26a56.45,56.45,0,0,0,7.22,13.5,48.07,48.07,0,0,0,10.09,10.23c.62,1,0,1.59-1.93,1.76a31,31,0,0,0-16.57,7.43,19.54,19.54,0,0,0-6.29,11.67,21.76,21.76,0,0,0,2.34,13.42,93.46,93.46,0,0,0,10.15,15.43c4.09,5.23,8.6,10.29,13.34,15.4s9.13,9.57,13.07,13.49c5.88,5.91,10.2,10.47,13.25,13.35s5.19,4.67,6.66,5.15,2.41-.13,3-1.93a38.45,38.45,0,0,0,1.44-7.57c1.16-11.55,2.47-23,4-34.55ZM220.55,240.55c-1.81-3.81-4.68-5.77-8.61-5.83s-9.06,3.25-15.15,9.94c.79,2.86,1.69,6,2.73,9.4s2.19,6.67,3.39,9.67a86.19,86.19,0,0,0,3.59,7.91c1.17,2.25,2.34,3.4,3.18,3.57,1.39.29,3.15-.47,5-2.76a31.94,31.94,0,0,0,4.86-8.83,45.06,45.06,0,0,0,2.68-11.74A21.4,21.4,0,0,0,220.55,240.55Z"/><path class="cls-2" d="M294.68,256c2.84,6.47,4.65,10.13,5.31,16.23a109.76,109.76,0,0,1,0,21c-.69,7.84-1.72,16.23-3.09,21.13s-2.43,7.92-3.14,9c-1.34,1.9-2.51,3.42-3.49,4.56s-1.73.47-2.23-2a7,7,0,0,1-.06-3.4,4.73,4.73,0,0,1,1.1-1.78,2.79,2.79,0,0,1,1.62-.79,4.31,4.31,0,0,0,1.54-.44c.71-.26,1.65-2.4,2.77-6.34a75.22,75.22,0,0,0,2.72-14.35,135.33,135.33,0,0,0,.7-18.7A58.43,58.43,0,0,0,295.49,264c-2-6.41-4-10.82-6.4-13.31s-4.72-3.55-7.27-2.81-5.27,3-8.11,6.78A62.84,62.84,0,0,0,266,269.07a92.68,92.68,0,0,0-5.18,19.54,79.65,79.65,0,0,0-.58,21.13,209.72,209.72,0,0,0,5,27.71c2,8.15,4,15.95,6,23.28s3.78,14.69,5.46,22a203.62,203.62,0,0,1,3.78,23.38,164.47,164.47,0,0,1,1,22.58A129.72,129.72,0,0,1,279.66,447a90.67,90.67,0,0,1-3.22,13.36c-1.23,3.65-2.5,6.12-3.92,7.37-2.19,1.92-4.13,1.86-6.23-.16s-4.23-5.22-6.52-9.57-4.63-9.37-7-15.06-4.49-11.3-6.32-16.88a82.11,82.11,0,0,1-3.62-14.73,37.19,37.19,0,0,1-.14-10.49c.45-2.73,1.25-4.67,2.35-5.79a2.61,2.61,0,0,1,3.46-.49,5.36,5.36,0,0,1,2.36,2.4,3.21,3.21,0,0,1,.3,2.39,1.72,1.72,0,0,1-1.39,1.05c-.69.13-1.55-.38-2.57-1.18s-1.88,0-2.33,2.15a32,32,0,0,0-.3,8.68,76.31,76.31,0,0,0,2.07,12.24,83.53,83.53,0,0,0,4,12.33,149,149,0,0,0,7.57,16.4c2.18,3.83,4,6.44,5.58,7.78s2.9,1.47,4.09.38a13.29,13.29,0,0,0,3.09-5.64c1.79-5.5,3.16-12.95,4.17-22.1a113.26,113.26,0,0,0-.87-29.71,193.25,193.25,0,0,0-6.27-26.9c-3-9.26-5.8-18.62-8.57-27.89a203.41,203.41,0,0,1-6.62-30.62,111.25,111.25,0,0,1,.92-35.85c2.1-10.57,4.6-21.86,10.22-31.53,4-6.85,8-10.68,11.67-11.74s6.84.16,10.08,3.87A58.87,58.87,0,0,1,294.68,256Z"/><path class="cls-2" d="M435.82,365.89l1.95-.41c-2.79,2.33-6.84,5.44-11.7,9.4-4.23,3.44-9.62,8-16,13.75-7.93,7.19-15.62,14.9-22.77,22.67-6.79,7.36-13.48,15.22-19.85,23.1-4.1,5.07-6.44,8-7.24,8.6s-.39-.73,1.17-4,3.88-7.78,7.07-13.52c2.74-4.92,6.53-11.4,11.48-19.27,5.41-8.59,11.07-17.3,17-25.38A291.23,291.23,0,0,0,415.7,353a191.71,191.71,0,0,0,13.73-29.38,148.93,148.93,0,0,0,7-26.06,78.56,78.56,0,0,0,1.15-18.73,50.24,50.24,0,0,0-4.51-17.74c-2.26-4.83-4.81-8.19-7.34-10.09s-4.88-2.07-7.3-.18S413.73,257,411,264.37c-3.22,8.68-5.32,18.3-7.31,27.3C401,303.77,397.84,316,394.43,328a323.44,323.44,0,0,1-13.75,38.55c-5.23,12.21-11.76,23.83-17.75,35.67-5.49,10.88-8.82,17.29-10.4,19s-1.07-1.09,1.55-8.5c.87-2.47,2.41-6.22,4.7-11.21s5.07-10.84,8.06-17.1,6-13.26,9-21a188.63,188.63,0,0,0,7.27-23.73,133.83,133.83,0,0,0,3.42-23.6,68.49,68.49,0,0,0-1.73-20.41c-.75-3.2-2-3.9-3.82-2s-3.79,5.39-6.18,10.62-5,11.76-8.06,19.57-6.09,15.92-9.2,24.18-6.14,16.28-9,23.93-5.26,14-7.14,19.07c-2.2,5.9-4.76,12.39-7.26,19.65s-5,14.74-7.49,22.42-4.92,15.34-7.28,22.93-4.67,14.46-6.81,20.54c-2.31,6.57-4.27,11.56-6.12,14.83s-3.16,5-3.82,5.32c-1.4.63-2.89-.16-4.05-2.66-1.4-3-2.46-10.49-3.3-17.58-.9-7.58-1.55-16.54-1.79-26.79a214.33,214.33,0,0,1,.62-23.88c.35-3.89.79-7.44,1.27-10.9s1-6.9,1.56-10.27c.19-.8.39-1.14.58-1,.19-.1.43-.4.72-.6a1.65,1.65,0,0,1,.58.67,2.76,2.76,0,0,1,.14,2c-1.37,8.19-2.37,14.85-3,22.77s-.83,15.7-.73,23.25q.1,8,.52,14.61a116.18,116.18,0,0,0,1.22,11.62c.69,4.34,1.43,6.66,2.26,7.89s1.68,1.64,2.59,1.24a7.53,7.53,0,0,0,2.83-3.11,46.78,46.78,0,0,0,3.07-6.49q1.8-4.49,3.76-10.74c1.31-4.16,2.84-9.26,4.68-15.27q2.13-7,4.61-15c1.66-5.33,3.3-10.48,4.82-15.4,1.58-5.13,3.23-10.32,5-15.5s3.4-10.11,4.9-15.23c3.15-11.06,6.19-22.2,8.77-33.29,2.66-11.45,5.07-23.28,7-34.85,2-11.76,3.58-23.91,4.75-35.78,1.11-11.21,1.95-22.69,2.26-34.08a19.42,19.42,0,0,1-4.07,1.56c-2,.61-3.43,1.22-4.09,1.34a12.2,12.2,0,0,0-2.16.37,3.64,3.64,0,0,1-2.2,0,43.7,43.7,0,0,1-9.11.38,16.12,16.12,0,0,0-4.41,1.23,13,13,0,0,0-4.18,2.9,28.46,28.46,0,0,0-3.88,5.89c-.62,1.44-1.17,2.84-1.64,4.19s-.92,2.84-1.33,4.43a57,57,0,0,0-1.75,10.69,63.74,63.74,0,0,0,.28,11.4,6.13,6.13,0,0,1-.07,2.46,9.12,9.12,0,0,1-.58,1.58.83.83,0,0,1-.77.11c-.23-.09-.47-.48-.49-1.26a68.63,68.63,0,0,1-.43-16,73,73,0,0,1,2.75-13.74,45.42,45.42,0,0,1,4.42-10.34c1.91-3.11,3.68-5.36,5.48-6.36a19.63,19.63,0,0,1,2.57-1.19,9.64,9.64,0,0,1,3.15-.62,17.7,17.7,0,0,0,3.23-.33,15.78,15.78,0,0,1,3.44-.31,21.63,21.63,0,0,0,3.48-.21l3.48-.47a12.55,12.55,0,0,0,6.32-3.14,17.26,17.26,0,0,0,4.47-6.46c1.13-2.75,1.65-7,1.26-12.37a20,20,0,0,1,.2-5.34c.25-.92.8-1.39,1.27-1.24s1,.91,1.47,2.22a22.77,22.77,0,0,1,1.08,5.12,258.27,258.27,0,0,1,.55,26.65c-.26,9.55-1,19.23-2,28.73-1.09,9.8-2.48,19.66-4.08,29.37-1.65,10.08-3.59,20.23-5.83,30.22-.76,3-1.51,6.19-2.28,9.43s-1.58,6.46-2.44,9.67c2.84-8.32,5.71-16.85,8.56-25.44s5.56-16.59,8.15-23.85,5-13.46,7.33-18.57,4.53-8.32,6.67-9.74,3.79-1.6,5.26-.66a11.45,11.45,0,0,1,3.82,4.64,28.86,28.86,0,0,1,2.44,8.23,81.86,81.86,0,0,1,1,10.23,118.8,118.8,0,0,1-2.75,29c3.41-14.29,6.58-28.65,10-42.93,2.48-10.42,4.86-21,7.88-31.23,2.36-8.07,4.55-13.72,7-17.16s5-4.49,8.08-3.62,6.49,3.57,10.17,7.88A57.29,57.29,0,0,1,443.17,268a60,60,0,0,1,3.25,18.46,86.27,86.27,0,0,1-2.6,22.78A125.87,125.87,0,0,1,435,333.64a162.74,162.74,0,0,1-13.17,22.48c-4.76,6.83-9.48,12.53-13.89,17.77s-7.55,9.23-9.5,11.81c-5.26,6.82-10,13.36-14.29,19.55s-7.76,11.53-10.52,15.94-4.56,7.59-5.48,9.48-.63,2.07.95.57c.72-.69,2.13-2.34,4.29-4.89s4.78-5.6,7.91-9.13,6.58-7.31,10.39-11.3,7.72-7.93,11.73-11.83a426.65,426.65,0,0,1,32.85-28.25Z"/></svg>