<svg xmlns="http://www.w3.org/2000/svg" viewBox="0 0 4569.8 4566.36"><defs><style>.cls-1{fill:#d3cc9f;}.cls-2,.cls-8{fill:#4b4f50;}.cls-11,.cls-3{fill:#333;}.cls-4,.cls-5{fill:#f4f0eb;}.cls-10,.cls-4,.cls-9{stroke:#4b4f50;}.cls-4{stroke-linecap:round;stroke-linejoin:round;}.cls-10,.cls-4,.cls-8{stroke-width:20px;}.cls-6,.cls-7,.cls-9{fill:#fff;}.cls-6,.cls-9{opacity:0.6;}.cls-8{stroke:#333;}.cls-10,.cls-8,.cls-9{stroke-miterlimit:10;}.cls-10{fill:none;}.cls-11{opacity:0.4;}.cls-12{font-size:450px;fill:#db91ed;font-family:brilliaFreeDemo-Regular, brillia Free Demo;}.cls-13{letter-spacing:-0.22em;}.cls-14{letter-spacing:-0.18em;}.cls-15{letter-spacing:0.08em;}.cls-16{letter-spacing:0.24em;}</style></defs><g id="Layer_1" data-name="Layer 1"><circle class="cls-1" cx="2283.18" cy="2283.18" r="2283.18"/><path class="cls-2" d="M2443.1,1745l-.09,0,.22.09Z"/><path class="cls-2" d="M1877,3108.29q9.18,4.18,18.49,8.17l17.3,7.22q20.17,7.46,41,14.05l.07-.14A732.15,732.15,0,0,1,1877,3108.29Z"/><path class="cls-2" d="M1640.56,2940.31q7.57,8.14,15.3,16.09,9.11,8.86,18.49,17.52Q1656.92,2957.66,1640.56,2940.31Z"/><path class="cls-2" d="M1768,3048.19q12.45,8.31,25.32,16.1a742.79,742.79,0,0,1-63.8-43.72C1742.1,3030.24,1754.93,3039.49,1768,3048.19Z"/><path class="cls-2" d="M1488.58,2699.53l7,17.29c18.41,44.9,41.83,87.66,68.31,127.47,9.8,14.74,20.31,29.16,31.37,43.24a736.87,736.87,0,0,1-109.89-196.88Q1487,2695.1,1488.58,2699.53Z"/><path class="cls-2" d="M2177.94,1696h0Z"/><path class="cls-2" d="M557.46,1395c2-1.46,4-2.9,6-4.3A62.67,62.67,0,0,0,557.46,1395Z"/><path class="cls-2" d="M1439.54,2434.36c0,1.53,0,3,0,4.57,0-1.56,0-3.13,0-4.7Z"/><path class="cls-2" d="M1912.74,1745l-.13,0,.22-.09Z"/><path class="cls-2" d="M2554.68,939.39v-70a97.86,97.86,0,0,0-1.7-16.88l205.95-.8A98.77,98.77,0,0,0,2857.7,753V417.25a98.76,98.76,0,0,0-98.77-98.77H1597a98.76,98.76,0,0,0-98.78,98.77V753A98.77,98.77,0,0,0,1597,851.74l205.94.8a97.86,97.86,0,0,0-1.7,16.88v70h753.49ZM1691,819.42c-56.61,0-102.93-46.32-102.93-102.93v-266c0-56.61,46.32-102.93,102.93-102.93h973.89c56.62,0,102.94,46.32,102.94,102.93v266c0,56.61-46.32,102.93-102.94,102.93Z"/><path class="cls-3" d="M2713.17,976.77c174,0,108.52,226.36,169.51,381.72l26.45-50.65-40.73-210.38c-9.21-46-33.74-85.79-66.34-113.17a190.89,190.89,0,0,0-123.54-44.9H2554.68v6Z"/><path class="cls-3" d="M605.69,3468.54c-54.54,0-120.93-241.4-120.93-295.95V1579.67c0-45.52,30.81-151,72.7-184.65a255.27,255.27,0,0,0-35.71,31.8c-38.75,42.68-63.26,99.88-63.26,162.08V3278.75a240.72,240.72,0,0,0,240.67,240.64H1754.52l26.78-51.28Z"/><path class="cls-3" d="M1464.88,1384.48c75.21-155.12-13.89-406.84,167.42-406.84l168.89-32.27v-6H1676.25a187.74,187.74,0,0,0-122.4,44.9c-33.75,27.38-57.16,67.21-66.39,113.17l-49.89,251.87H677.9c-42.07,3.43-81.14,18.45-114.41,41.39,6.47-4,13.18-6.24,20-6.24Z"/><path class="cls-3" d="M1655.36,2374c30-262,252.52-465.56,522.57-465.56a524,524,0,0,1,348.67,132.15l.05-.11A524.16,524.16,0,0,0,2178,1908.3C1907.8,1908.3,1685.21,2111.88,1655.36,2374Z"/><path class="cls-3" d="M958.22,1520.55c-48,0-90.66,19.52-122.44,51-31.53,31.74-51,74.42-51,122.39a174,174,0,0,0,51,123.25c31.78,31.82,74.46,51,122.44,51A173.85,173.85,0,0,0,1132.51,1694c0-48-19.27-90.65-50.79-122.39A175.1,175.1,0,0,0,958.22,1520.55Zm.53,313.72a139.85,139.85,0,1,1,139.85-139.85A139.85,139.85,0,0,1,958.75,1834.27Z"/><path class="cls-3" d="M2508.37,1709.29v-1.07l-25.59-10.08c-47.76-20.59-97.94-35.67-149.85-46-49.9-10.3-102-15.3-155-15.3s-105.13,5-155,15.3c-52.12,10.3-102.06,25.38-149.82,46l-26.7,11.15a934.69,934.69,0,0,0-111,62.2,808.05,808.05,0,0,0-120.43,99h-.89v.85c-36.79,36.82-70.49,76.64-99,120.47-23.41,35.67-44.89,72.2-62.19,112.1l-1.08-1.08-10.08,26.45c-20.59,48-35.67,98.17-46,150a791.92,791.92,0,0,0,0,310.13,746.48,746.48,0,0,0,46,149.77l11.16,26.45a917.75,917.75,0,0,0,62.19,111.24,775.39,775.39,0,0,0,99,120.25l.89,1.08a808.61,808.61,0,0,0,120.43,99c34.6,23.45,72.28,43.76,111,62.2h-.89l27.59,11.16q26.06,11.11,53,20.21l27.71-53.07q-20.83-6.57-41-14.05l-17.3-7.22q-9.32-4-18.49-8.17a736,736,0,0,1-83.63-44q-12.85-7.8-25.32-16.1c-13.07-8.7-25.9-18-38.48-27.62q-28.73-22-55.17-46.65-9.37-8.64-18.49-17.52-7.72-7.93-15.3-16.09-23.85-25.3-45.3-52.78c-11.06-14.08-21.57-28.5-31.37-43.24-26.48-39.81-49.9-82.57-68.31-127.47l-7-17.29q-1.62-4.43-3.21-8.88a736,736,0,0,1-45.8-251.72c0-1.52,0-3,0-4.57v-.26c0-314.16,196.35-582.47,473.07-689l.13,0,.09,0a736.8,736.8,0,0,1,265.09-49h.9A736.73,736.73,0,0,1,2443,1745l.09,0,.13,0A737,737,0,0,1,2627,1848.18l27.31-52.31q-16.68-12.52-33.87-24.38C2584.8,1748.11,2547.12,1726.59,2508.37,1709.29Z"/><path class="cls-2" d="M2364.53,1982.6a449,449,0,0,0-90.69-27.59,491.5,491.5,0,0,0-95.9-9.22A483.16,483.16,0,0,0,2082,1955a437.35,437.35,0,0,0-91.76,27.59,562.43,562.43,0,0,0-83.65,44.9c-26.52,17.3-51,38.75-74.46,61.13-22.33,23.37-43.78,47.9-61.08,74.42a561.67,561.67,0,0,0-44.9,83.64,454.14,454.14,0,0,0-27.6,91.73,484.46,484.46,0,0,0-9.19,95.94,493.09,493.09,0,0,0,9.19,95.95,443,443,0,0,0,27.6,90.65,472.39,472.39,0,0,0,44.9,83.64c17.3,26.46,38.75,51.9,61.08,75.35a600,600,0,0,0,74.46,61.27,556,556,0,0,0,83.65,44.9c25.47,10,52.71,19.27,81.55,25.52l.67-1.28c-218.49-48.2-382-243-382-476,0-269.18,218.24-487.39,487.41-487.39a485.69,485.69,0,0,1,330.21,128.9l.39-.76a465.17,465.17,0,0,0-60.35-47.64A476.11,476.11,0,0,0,2364.53,1982.6Z"/><path class="cls-3" d="M2054.26,2945.27l17.56-33.63c-28.84-6.25-56.08-15.54-81.55-25.52a556,556,0,0,1-83.65-44.9,600,600,0,0,1-74.46-61.27c-22.33-23.45-43.78-48.89-61.08-75.35a472.39,472.39,0,0,1-44.9-83.64,443,443,0,0,1-27.6-90.65,493.09,493.09,0,0,1-9.19-95.95,484.46,484.46,0,0,1,9.19-95.94,454.14,454.14,0,0,1,27.6-91.73,561.67,561.67,0,0,1,44.9-83.64c17.3-26.52,38.75-51.05,61.08-74.42,23.42-22.38,47.94-43.83,74.46-61.13a562.43,562.43,0,0,1,83.65-44.9A437.35,437.35,0,0,1,2082,1955a483.16,483.16,0,0,1,95.91-9.22,491.5,491.5,0,0,1,95.9,9.22,449,449,0,0,1,90.69,27.59,476.11,476.11,0,0,1,83.65,44.9,465.17,465.17,0,0,1,60.35,47.64l18.07-34.6a524,524,0,0,0-348.67-132.15c-270,0-492.59,203.53-522.57,465.56a531,531,0,0,0-3.41,60.15C1652,2681.9,1823.44,2889.66,2054.26,2945.27Z"/><path class="cls-2" d="M2029.4,2835.53a427.9,427.9,0,1,1,419-732.87q16.23,13.26,31.07,28.05l28.62-54.81A485.69,485.69,0,0,0,2177.93,1947c-269.17,0-487.41,218.21-487.41,487.39,0,233,163.48,427.77,382,476l28.67-54.93A436.55,436.55,0,0,1,2029.4,2835.53Z"/><path class="cls-2" d="M1912.88,2600.45l241.88,152.33,61.91-118.59a204.37,204.37,0,0,1-38.74,3.7c-112.37,0-203.49-91.11-203.49-203.49s91.12-203.49,203.49-203.49A203.55,203.55,0,0,1,2364,2352l49.75-95.31-250.83-145.81-250.06,157.47Z"/><path class="cls-4" d="M2448.45,2102.66a426.53,426.53,0,0,0-148-78.4l-137.51,86.58,250.83,145.81,65.75-125.94Q2464.69,2116,2448.45,2102.66Z"/><path class="cls-4" d="M2162.94,2110.84l137.51-86.58a429.12,429.12,0,0,0-387.57,74.29v169.76Z"/><path class="cls-4" d="M1912.88,2268.31V2098.55a422.1,422.1,0,0,0-157.31,402.82l157.31,99.08Z"/><path class="cls-4" d="M2029.4,2835.53a436.55,436.55,0,0,0,71.76,19.9l46.17-88.43Z"/><path class="cls-4" d="M2154.76,2752.78l-241.88-152.33-157.31-99.08a426.92,426.92,0,0,0,273.83,334.16L2147.33,2767Z"/><path class="cls-5" d="M2177.93,2605.34a170.94,170.94,0,1,1,165.49-213.94L2364,2352a203.55,203.55,0,0,0-186.09-121.05c-112.37,0-203.49,91.11-203.49,203.49s91.12,203.49,203.49,203.49a204.37,204.37,0,0,0,38.74-3.7l20.58-39.43A170.54,170.54,0,0,1,2177.93,2605.34Z"/><path class="cls-2" d="M2177.93,2263.46a170.94,170.94,0,1,0,59.32,331.3l106.17-203.36A171,171,0,0,0,2177.93,2263.46Zm-121.85,248A144.23,144.23,0,0,0,2156.59,2577,144.23,144.23,0,0,1,2056.08,2511.46Zm179.38-209.29a144.53,144.53,0,0,1,82.2,96.58A144.53,144.53,0,0,0,2235.46,2302.17Z"/><path class="cls-6" d="M958.22,1579.67c-31.53,0-60.24,12.3-80.61,33.75-21.45,20.38-33.49,49-33.49,80.57s12,61.13,33.49,81.43a113.57,113.57,0,0,0,80.61,33.75A114.8,114.8,0,0,0,1073.39,1694a114.34,114.34,0,0,0-33.5-80.57C1019.52,1592,990,1579.67,958.22,1579.67Z"/><path class="cls-7" d="M958.75,1554.57a139.85,139.85,0,1,0,139.85,139.85A139.85,139.85,0,0,0,958.75,1554.57Zm81.14,220.85a115.72,115.72,0,0,1-81.67,33.75,113.57,113.57,0,0,1-80.61-33.75c-21.45-20.3-33.49-49.9-33.49-81.43s12-60.19,33.49-80.57c20.37-21.45,49.08-33.75,80.61-33.75,31.73,0,61.3,12.3,81.67,33.75a114.34,114.34,0,0,1,33.5,80.57A116.24,116.24,0,0,1,1039.89,1775.42Z"/><rect class="cls-8" x="818.9" y="1206.6" width="341.22" height="117.98" rx="45.4"/><path class="cls-6" d="M2043.93,2965.06c-26.18-6.33-51.64-15.06-76-24.82a551.23,551.23,0,0,1-93.94-50.19,612.59,612.59,0,0,1-83.64-69.21,598.9,598.9,0,0,1-68.35-82.49c-19.27-29.6-36.57-61.34-49.91-94.87a493.1,493.1,0,0,1-31.56-102c-6.11-34.81-10.26-70.49-10.26-107.09s4.15-72.49,10.26-107.1c7-35.67,17.3-70.27,31.56-102.87,13.34-32.89,30.64-64.41,49.91-93.94a676.42,676.42,0,0,1,68.35-83.64,701.55,701.55,0,0,1,83.64-68.35c29.56-19.31,61.3-36.82,93.94-50,32.63-14.23,67.24-24.53,102.91-31.53,34.61-6.08,70.31-10.22,107.1-10.22s72.49,4.14,107.09,10.22a489.13,489.13,0,0,1,102,31.53c33.53,13.15,65.27,30.66,94.87,50a617.2,617.2,0,0,1,54.82,42.65l90.15-172.67c-12.72-9.87-25.74-19.29-39-28.12-39.89-26.45-82.57-49.9-127.47-68.28l-17.17-7-.22-.09c-38.72-14.21-79.37-26.49-121.23-34.78a746.34,746.34,0,0,0-143-14.22h-.89a736.27,736.27,0,0,0-143.87,14.23c-41.79,8.29-82.48,20.57-121.23,34.78l-.22.09-17.17,7c-44.9,18.38-87.79,41.83-127.44,68.28-39.86,26.52-77.53,58.26-112.14,92-33.7,34.6-65.44,72.28-92,112.1a727,727,0,0,0-68.31,127.46l-6.11,15.31c-15.12,39.67-27.38,80.57-35.5,123.32a739,739,0,0,0-14.43,143.71c0,1.57,0,3.14,0,4.7A747,747,0,0,0,1454,2578c7.5,38.64,18.54,76.55,31.4,112.66a736.87,736.87,0,0,0,109.89,196.88c14.3,18.2,29.52,35.82,45.3,52.78q16.37,17.34,33.79,33.61c17.71,16.33,36.14,32,55.17,46.65a742.79,742.79,0,0,0,63.8,43.72,798.2,798.2,0,0,0,83.63,44,732.15,732.15,0,0,0,76.9,29.3Z"/><path class="cls-7" d="M1729.52,3020.57c-19-14.66-37.46-30.32-55.17-46.65Q1700.77,2998.55,1729.52,3020.57Z"/><path class="cls-7" d="M1640.56,2940.31c-15.78-17-31-34.58-45.3-52.78Q1616.68,2915,1640.56,2940.31Z"/><path class="cls-7" d="M1439.57,2438.93a736,736,0,0,0,45.8,251.72c-12.86-36.11-23.9-74-31.4-112.66A747,747,0,0,1,1439.57,2438.93Z"/><path class="cls-7" d="M1651.92,2434.39a531.32,531.32,0,0,1,3.44-60.44c29.85-262.07,252.44-465.65,522.59-465.65a524.16,524.16,0,0,1,348.7,132.13l10.09-19.32a617.2,617.2,0,0,0-54.82-42.65c-29.6-19.31-61.34-36.82-94.87-50A489.13,489.13,0,0,0,2285,1897c-34.6-6.08-70.31-10.22-107.09-10.22s-72.49,4.14-107.1,10.22c-35.67,7-70.28,17.3-102.91,31.53-32.64,13.15-64.38,30.66-93.94,50a701.55,701.55,0,0,0-83.64,68.35,676.42,676.42,0,0,0-68.35,83.64c-19.27,29.53-36.57,61.05-49.91,93.94-14.26,32.6-24.51,67.2-31.56,102.87-6.11,34.61-10.26,70.36-10.26,107.1s4.15,72.28,10.26,107.09a493.1,493.1,0,0,0,31.56,102c13.34,33.53,30.64,65.27,49.91,94.87a598.9,598.9,0,0,0,68.35,82.49,612.59,612.59,0,0,0,83.64,69.21,551.23,551.23,0,0,0,93.94,50.19c24.36,9.76,49.82,18.49,76,24.82l10.09-19.34C1823.32,2890,1651.92,2682.2,1651.92,2434.39Z"/><path class="cls-7" d="M1877,3108.29a798.2,798.2,0,0,1-83.63-44A736,736,0,0,0,1877,3108.29Z"/><path class="cls-7" d="M2587.87,1820.32c13.28,8.83,26.3,18.25,39,28.12l.14-.26a737,737,0,0,0-183.8-103.09l17.17,7C2505.3,1770.42,2548,1793.87,2587.87,1820.32Z"/><path class="cls-7" d="M2443,1745a736.73,736.73,0,0,0-264.19-49,746.34,746.34,0,0,1,143,14.22C2363.64,1718.51,2404.29,1730.79,2443,1745Z"/><path class="cls-7" d="M2177.93,1696h0a736.8,736.8,0,0,0-265.09,49c38.75-14.21,79.44-26.49,121.23-34.78A736.27,736.27,0,0,1,2177.93,1696Z"/><path class="cls-7" d="M1489.47,2167.2l6.11-15.31a727,727,0,0,1,68.31-127.46c26.53-39.82,58.27-77.5,92-112.1,34.61-33.75,72.28-65.49,112.14-92,39.65-26.45,82.54-49.9,127.44-68.28l17.17-7c-276.72,106.54-473.07,374.85-473.07,689v.13A739,739,0,0,1,1454,2290.52C1462.09,2247.77,1474.35,2206.87,1489.47,2167.2Z"/><path class="cls-7" d="M1652,2434.1a531,531,0,0,1,3.41-60.15,531.32,531.32,0,0,0-3.44,60.44c0,247.81,171.4,455.62,402.1,511.33l.24-.45C1823.44,2889.66,1652,2681.9,1652,2434.1Z"/><path class="cls-9" d="M1691,347.52h973.89a102.93,102.93,0,0,1,102.93,102.93v266a102.94,102.94,0,0,1-102.94,102.94H1691a102.94,102.94,0,0,1-102.94-102.94v-266A102.94,102.94,0,0,1,1691,347.52Z"/><line class="cls-10" x1="3137.42" y1="871.45" x2="1588.06" y2="3823.81"/></g><g id="Layer_2" data-name="Layer 2"><path class="cls-11" d="M1837.69,3519.39,2731.9,4522.28s280.43-60.68,477.11-151.43,321.59-139.33,642.56-428.43c337-338.52,434.6-546.71,549.48-804.69,86.81-201.34,149.26-449.87,161.46-720.94,32-291.06-51.88-637.24-51.88-637.24l-1536.46-402Z"/><path class="cls-2" d="M2973.19,1346.31h758.95c108.53,0,196.52,89.27,196.52,199.38V3320c0,110.12-88,199.38-196.52,199.38H1836.71Z"/><text class="cls-12" transform="translate(1921.01 2182.12)"><tspan class="cls-13" xml:space="preserve">																							</tspan><tspan class="cls-14" x="828" y="0">	</tspan><tspan x="880.69" y="0">Endless</tspan><tspan class="cls-13" x="0" y="500" xml:space="preserve">															</tspan><tspan class="cls-15" x="540" y="500">	</tspan><tspan x="709.9" y="500">Summer</tspan><tspan class="cls-13" x="0" y="1000" xml:space="preserve">								</tspan><tspan class="cls-16" x="288" y="1000">	</tspan><tspan x="529.46" y="1000">Moments</tspan></text></g></svg>