<svg xmlns="http://www.w3.org/2000/svg" viewBox="0 0 3483.86 3311.44"><defs></defs><g id="Layer_2" data-name="Layer 2"><path class="cls-1" d="M1987.3,1228l-.09,0,.22.09Z"/><path class="cls-1" d="M1421.15,2591.28q9.18,4.18,18.49,8.17l17.3,7.22q20.18,7.45,41,14l.07-.14A732.15,732.15,0,0,1,1421.15,2591.28Z"/><path class="cls-1" d="M1184.76,2423.3q7.58,8.14,15.3,16.08,9.11,8.88,18.49,17.53Q1201.12,2440.65,1184.76,2423.3Z"/><path class="cls-1" d="M1312.2,2531.18q12.45,8.31,25.32,16.1a740.63,740.63,0,0,1-63.8-43.73C1286.3,2513.23,1299.13,2522.48,1312.2,2531.18Z"/><path class="cls-1" d="M1032.78,2182.51l7,17.3c18.41,44.9,41.83,87.65,68.31,127.47,9.8,14.74,20.31,29.16,31.37,43.23a736.81,736.81,0,0,1-109.89-196.87Q1031.16,2178.1,1032.78,2182.51Z"/><path class="cls-1" d="M1722.14,1179h0Z"/><path class="cls-1" d="M101.66,878c2-1.46,4-2.9,6-4.3A62.67,62.67,0,0,0,101.66,878Z"/><path class="cls-1" d="M1456.94,1228l-.13.06.22-.09Z"/><path class="cls-2" d="M2257.37,459.76c174.05,0,108.52,226.36,169.51,381.72l26.45-50.66L2412.6,580.45c-9.21-46-33.74-85.79-66.34-113.17a190.89,190.89,0,0,0-123.54-44.9H1706.8v6Z"/><path class="cls-2" d="M149.89,2951.53c-54.54,0-120.93-241.41-120.93-296V1062.66c0-45.52,30.81-151,72.7-184.65A255.27,255.27,0,0,0,66,909.81C27.2,952.49,2.69,1009.69,2.69,1071.89V2761.74a240.72,240.72,0,0,0,240.67,240.64H1298.72l26.78-51.29Z"/><path class="cls-2" d="M1009.08,867.47c75.21-155.13-13.89-406.84,167.42-406.84l530.3-32.27v-6H1220.45a187.74,187.74,0,0,0-122.4,44.9c-33.75,27.38-57.16,67.2-66.39,113.17L981.77,832.31H222.1C180,835.75,141,850.77,107.69,873.71c6.47-4,13.18-6.24,20-6.24Z"/><path class="cls-3" d="M1573.6,2318.52a437.54,437.54,0,0,0,71.76,19.9l46.17-88.44Z"/><path class="cls-1" d="M502.42,1003.54c-48,0-90.66,19.52-122.44,51-31.53,31.74-51,74.42-51,122.39a174,174,0,0,0,51,123.25c31.78,31.81,74.46,51,122.44,51A173.85,173.85,0,0,0,676.71,1177c0-48-19.27-90.65-50.79-122.39A175.1,175.1,0,0,0,502.42,1003.54Zm.53,313.72A139.86,139.86,0,1,1,642.8,1177.41,139.85,139.85,0,0,1,503,1317.26Z"/><path class="cls-4" d="M502.42,1062.66c-31.53,0-60.24,12.3-80.61,33.75-21.45,20.37-33.49,49-33.49,80.57s12,61.12,33.49,81.43a113.56,113.56,0,0,0,80.61,33.74A114.79,114.79,0,0,0,617.59,1177a114.31,114.31,0,0,0-33.5-80.57C563.72,1075,534.15,1062.66,502.42,1062.66Z"/><path class="cls-5" d="M503,1037.55A139.86,139.86,0,1,0,642.8,1177.41,139.85,139.85,0,0,0,503,1037.55Zm81.14,220.86a115.71,115.71,0,0,1-81.67,33.74,113.56,113.56,0,0,1-80.61-33.74c-21.45-20.31-33.49-49.9-33.49-81.43s12-60.2,33.49-80.57c20.37-21.45,49.08-33.75,80.61-33.75,31.73,0,61.3,12.3,81.67,33.75a114.31,114.31,0,0,1,33.5,80.57A116.25,116.25,0,0,1,584.09,1258.41Z"/><rect class="cls-1" x="363.1" y="689.59" width="341.22" height="117.98" rx="45.4"/><path class="cls-5" d="M1273.72,2503.55c-19-14.65-37.46-30.31-55.17-46.64Q1245,2481.54,1273.72,2503.55Z"/><path class="cls-5" d="M1184.76,2423.3c-15.78-17-31-34.58-45.3-52.79Q1160.88,2398,1184.76,2423.3Z"/><path class="cls-5" d="M1421.15,2591.28a798.2,798.2,0,0,1-83.63-44A736,736,0,0,0,1421.15,2591.28Z"/><path class="cls-5" d="M2132.07,1303.3c13.28,8.83,26.3,18.26,39,28.12l.14-.26a737,737,0,0,0-183.8-103.08l17.17,7C2049.5,1253.4,2092.18,1276.85,2132.07,1303.3Z"/><path class="cls-5" d="M1987.21,1228A736.73,736.73,0,0,0,1723,1179a746.34,746.34,0,0,1,143,14.22C1907.84,1201.49,1948.49,1213.78,1987.21,1228Z"/><path class="cls-5" d="M1722.13,1179h0A736.8,736.8,0,0,0,1457,1228c38.76-14.21,79.44-26.5,121.23-34.78A736.27,736.27,0,0,1,1722.13,1179Z"/><path class="cls-1" d="M983.74,1917.35c0,1.52,0,3.05,0,4.57,0-1.56,0-3.13,0-4.7Z"/><path class="cls-2" d="M1199.56,1856.94c30-262,252.52-465.56,522.57-465.56a524,524,0,0,1,348.67,132.15l0-.11a524.12,524.12,0,0,0-348.7-132.14C1452,1391.28,1229.41,1594.87,1199.56,1856.94Z"/><path class="cls-1" d="M2052.57,1192.28v-1.07L2027,1181.13c-47.76-20.6-97.94-35.68-149.85-46-49.9-10.3-102-15.3-155-15.3s-105.13,5-155,15.3c-52.12,10.29-102.06,25.37-149.82,46l-26.7,11.15a934.62,934.62,0,0,0-111,62.19,809.29,809.29,0,0,0-120.43,99h-.89v.86c-36.79,36.82-70.49,76.64-99,120.46-23.41,35.68-44.89,72.21-62.19,112.11l-1.08-1.08-10.08,26.45c-20.59,48-35.67,98.17-46,150a791.92,791.92,0,0,0,0,310.13,746.48,746.48,0,0,0,46,149.77l11.16,26.45a918.51,918.51,0,0,0,62.19,111.24,775.86,775.86,0,0,0,99,120.25l.89,1.08a809.85,809.85,0,0,0,120.43,99c34.6,23.45,72.28,43.76,111,62.2h-.89l27.59,11.16q26.06,11.11,53,20.21l27.71-53.07q-20.84-6.57-41-14l-17.3-7.22q-9.32-4-18.49-8.17a736,736,0,0,1-83.63-44q-12.86-7.82-25.32-16.1c-13.07-8.7-25.9-17.95-38.48-27.63q-28.73-22-55.17-46.64-9.37-8.65-18.49-17.53-7.72-7.93-15.3-16.08-23.85-25.31-45.3-52.79c-11.06-14.07-21.57-28.49-31.37-43.23-26.48-39.82-49.9-82.57-68.31-127.47l-7-17.3q-1.62-4.41-3.21-8.87a736,736,0,0,1-45.8-251.72c0-1.52,0-3.05,0-4.57v-.26c0-314.16,196.35-582.47,473.07-689l.13-.06.09,0a736.8,736.8,0,0,1,265.09-49h.9a736.73,736.73,0,0,1,264.19,49l.09,0,.13.06a737,737,0,0,1,183.8,103.08l27.31-52.3q-16.68-12.54-33.87-24.39C2129,1231.1,2091.32,1209.58,2052.57,1192.28Z"/><path class="cls-1" d="M1908.73,1465.59A448.37,448.37,0,0,0,1818,1438a491.5,491.5,0,0,0-95.9-9.23,483.15,483.15,0,0,0-95.91,9.23,436.75,436.75,0,0,0-91.76,27.59,562.43,562.43,0,0,0-83.65,44.9c-26.52,17.3-51,38.75-74.46,61.13-22.33,23.37-43.78,47.9-61.08,74.42a561.18,561.18,0,0,0-44.9,83.64,454.14,454.14,0,0,0-27.6,91.73,484.46,484.46,0,0,0-9.19,95.94,492.91,492.91,0,0,0,9.19,95.94,442.94,442.94,0,0,0,27.6,90.66,472.39,472.39,0,0,0,44.9,83.64c17.3,26.45,38.75,51.9,61.08,75.35a600,600,0,0,0,74.46,61.27,555.08,555.08,0,0,0,83.65,44.89c25.47,10,52.71,19.27,81.55,25.52l.67-1.27c-218.49-48.2-382-243-382-476,0-269.18,218.24-487.39,487.41-487.39a485.69,485.69,0,0,1,330.21,128.9l.39-.76a464.32,464.32,0,0,0-60.35-47.64A476.11,476.11,0,0,0,1908.73,1465.59Z"/><path class="cls-2" d="M1598.46,2428.26l17.56-33.64c-28.84-6.25-56.08-15.53-81.55-25.52a555.08,555.08,0,0,1-83.65-44.89,600,600,0,0,1-74.46-61.27c-22.33-23.45-43.78-48.9-61.08-75.35a472.39,472.39,0,0,1-44.9-83.64,442.94,442.94,0,0,1-27.6-90.66,492.91,492.91,0,0,1-9.19-95.94,484.46,484.46,0,0,1,9.19-95.94,454.14,454.14,0,0,1,27.6-91.73,561.18,561.18,0,0,1,44.9-83.64c17.3-26.52,38.75-51,61.08-74.42,23.42-22.38,47.94-43.83,74.46-61.13a562.43,562.43,0,0,1,83.65-44.9,436.75,436.75,0,0,1,91.76-27.59,483.15,483.15,0,0,1,95.91-9.23A491.5,491.5,0,0,1,1818,1438a448.37,448.37,0,0,1,90.69,27.59,476.11,476.11,0,0,1,83.65,44.9,464.32,464.32,0,0,1,60.35,47.64l18.07-34.6a524,524,0,0,0-348.67-132.15c-270.05,0-492.59,203.52-522.57,465.56a531,531,0,0,0-3.41,60.15C1196.15,2164.89,1367.64,2372.65,1598.46,2428.26Z"/><path class="cls-6" d="M1573.6,2318.52a427.9,427.9,0,1,1,419.05-732.87q16.23,13.26,31.07,28l28.62-54.81A485.69,485.69,0,0,0,1722.13,1430c-269.17,0-487.41,218.21-487.41,487.39,0,233,163.48,427.77,382,476l28.67-54.93A437.54,437.54,0,0,1,1573.6,2318.52Z"/><path class="cls-7" d="M1457.08,2083.44,1699,2235.76l61.91-118.58a204.37,204.37,0,0,1-38.74,3.7c-112.37,0-203.49-91.12-203.49-203.49s91.12-203.5,203.49-203.5A203.56,203.56,0,0,1,1908.22,1835l49.75-95.31-250.83-145.82L1457.08,1751.3Z"/><path class="cls-3" d="M1992.65,1585.65a426.53,426.53,0,0,0-148-78.4l-137.51,86.57L1958,1739.64l65.75-125.94Q2008.88,1598.94,1992.65,1585.65Z"/><path class="cls-3" d="M1707.14,1593.82l137.51-86.57a429.12,429.12,0,0,0-387.57,74.29V1751.3Z"/><path class="cls-3" d="M1457.08,1751.3V1581.54a422.1,422.1,0,0,0-157.31,402.82l157.31,99.08Z"/><path class="cls-3" d="M1699,2235.76l-241.88-152.32-157.31-99.08a427,427,0,0,0,273.83,334.16L1691.53,2250Z"/><path class="cls-8" d="M1722.13,2088.33a170.95,170.95,0,1,1,165.49-213.94l20.6-39.44a203.56,203.56,0,0,0-186.09-121.06c-112.37,0-203.49,91.12-203.49,203.5s91.12,203.49,203.49,203.49a204.37,204.37,0,0,0,38.74-3.7l20.58-39.43A170.54,170.54,0,0,1,1722.13,2088.33Z"/><path class="cls-9" d="M1722.13,1746.44a170.95,170.95,0,1,0,59.32,331.31l106.17-203.36A171,171,0,0,0,1722.13,1746.44Zm-121.85,248A144.23,144.23,0,0,0,1700.79,2060,144.23,144.23,0,0,1,1600.28,1994.45Zm179.38-209.29a144.53,144.53,0,0,1,82.2,96.58A144.53,144.53,0,0,0,1779.66,1785.16Z"/><path class="cls-4" d="M1588.13,2448.05c-26.18-6.33-51.64-15.06-76-24.82-32.64-13.37-64.38-30.68-93.94-50.19a613.2,613.2,0,0,1-83.64-69.21,598.9,598.9,0,0,1-68.35-82.49c-19.27-29.6-36.57-61.35-49.91-94.87a493.1,493.1,0,0,1-31.56-102c-6.11-34.81-10.26-70.49-10.26-107.09s4.15-72.49,10.26-107.1c7-35.67,17.3-70.27,31.56-102.87,13.34-32.89,30.64-64.42,49.91-93.94a677.27,677.27,0,0,1,68.35-83.65,703.25,703.25,0,0,1,83.64-68.34c29.56-19.31,61.3-36.82,93.94-50,32.63-14.24,67.24-24.53,102.91-31.54,34.61-6.07,70.31-10.22,107.1-10.22s72.49,4.15,107.09,10.22a489,489,0,0,1,102,31.54c33.53,13.15,65.27,30.66,94.87,50a617.2,617.2,0,0,1,54.82,42.65l90.15-172.68c-12.72-9.86-25.74-19.29-39-28.12-39.89-26.45-82.57-49.9-127.47-68.27l-17.17-7-.22-.09c-38.72-14.21-79.37-26.5-121.23-34.78A746.34,746.34,0,0,0,1723,1179h-.89a736.27,736.27,0,0,0-143.87,14.23c-41.79,8.28-82.47,20.57-121.23,34.78l-.22.09-17.17,7c-44.9,18.37-87.79,41.82-127.44,68.27-39.86,26.53-77.53,58.27-112.14,92-33.7,34.6-65.44,72.28-92,112.09a727.11,727.11,0,0,0-68.31,127.47l-6.11,15.3c-15.12,39.68-27.38,80.58-35.5,123.33a739,739,0,0,0-14.43,143.71c0,1.57,0,3.14,0,4.7a747,747,0,0,0,14.4,139c7.5,38.65,18.54,76.56,31.4,112.67a736.81,736.81,0,0,0,109.89,196.87c14.3,18.21,29.52,35.83,45.3,52.79q16.37,17.34,33.79,33.61c17.71,16.33,36.14,32,55.17,46.64a740.63,740.63,0,0,0,63.8,43.73,798.2,798.2,0,0,0,83.63,44,732.15,732.15,0,0,0,76.9,29.3Z"/><path class="cls-5" d="M983.77,1921.92a736,736,0,0,0,45.8,251.72c-12.86-36.11-23.9-74-31.4-112.67A747,747,0,0,1,983.77,1921.92Z"/><path class="cls-5" d="M1196.12,1917.38a531.32,531.32,0,0,1,3.44-60.44c29.85-262.07,252.44-465.66,522.59-465.66a524.12,524.12,0,0,1,348.7,132.14l10.09-19.32a617.2,617.2,0,0,0-54.82-42.65c-29.6-19.31-61.34-36.82-94.87-50a489,489,0,0,0-102-31.54c-34.6-6.07-70.31-10.22-107.09-10.22s-72.49,4.15-107.1,10.22c-35.67,7-70.28,17.3-102.91,31.54-32.64,13.15-64.38,30.66-93.94,50a703.25,703.25,0,0,0-83.64,68.34,677.27,677.27,0,0,0-68.35,83.65c-19.27,29.52-36.57,61-49.91,93.94-14.26,32.6-24.51,67.2-31.56,102.87-6.11,34.61-10.26,70.35-10.26,107.1s4.15,72.28,10.26,107.09a493.1,493.1,0,0,0,31.56,102c13.34,33.52,30.64,65.27,49.91,94.87a598.9,598.9,0,0,0,68.35,82.49,613.2,613.2,0,0,0,83.64,69.21c29.56,19.51,61.3,36.82,93.94,50.19,24.36,9.76,49.82,18.49,76,24.82l10.09-19.34C1367.52,2373,1196.12,2165.19,1196.12,1917.38Z"/><path class="cls-5" d="M1033.67,1650.18l6.11-15.3a727.11,727.11,0,0,1,68.31-127.47c26.53-39.81,58.27-77.49,92-112.09,34.61-33.75,72.28-65.49,112.14-92,39.65-26.45,82.54-49.9,127.44-68.27l17.17-7c-276.72,106.54-473.07,374.85-473.07,689v.13a739,739,0,0,1,14.43-143.71C1006.29,1730.76,1018.55,1689.86,1033.67,1650.18Z"/><path class="cls-5" d="M1196.15,1917.09a531,531,0,0,1,3.41-60.15,531.32,531.32,0,0,0-3.44,60.44c0,247.81,171.4,455.61,402.1,511.33l.24-.45C1367.64,2372.65,1196.15,2164.89,1196.15,1917.09Z"/><line class="cls-10" x1="2681.62" y1="354.44" x2="1132.26" y2="3306.8"/><path class="cls-1" d="M1992.18,748.91l147.8-.39c39.16,0,70.89-21.59,70.89-48.22V536.41c0-26.64-31.73-48.23-70.89-48.23H1306.06c-39.16,0-70.89,21.59-70.89,48.23V700.3c0,26.63,31.73,48.22,70.89,48.22l147.8.39m-80.31-16.17c-40.63,0-73.87-22.61-73.87-50.25V552.61c0-27.64,33.24-50.25,73.87-50.25h698.93c40.63,0,73.88,22.61,73.88,50.25V682.49c0,27.64-33.25,50.25-73.88,50.25Z"/><path class="cls-11" d="M2146.36,682.49V552.61c0-27.64-33.25-50.25-73.88-50.25H1373.55c-40.63,0-73.87,22.61-73.87,50.25V682.49c0,27.64,33.24,50.25,73.87,50.25h698.93C2113.11,732.74,2146.36,710.13,2146.36,682.49Z"/><path class="cls-12" d="M2517.39,829.3h759c108.53,0,196.52,89.27,196.52,199.38V2803c0,110.11-88,199.38-196.52,199.38H1380.91Z"/><text class="cls-13" transform="translate(1465.21 1617.05)"><tspan class="cls-14" xml:space="preserve">																							</tspan><tspan class="cls-15" x="828" y="0">	</tspan><tspan x="887.1" y="0">Endless</tspan><tspan class="cls-14" x="0" y="500" xml:space="preserve">															</tspan><tspan class="cls-16" x="540" y="500">	</tspan><tspan class="cls-17" x="690.23" y="500">S</tspan><tspan x="888.6" y="500">ummer</tspan><tspan class="cls-14" x="0" y="1000" xml:space="preserve">								</tspan><tspan class="cls-18" x="288" y="1000">	</tspan><tspan x="439.1" y="1000">Moments</tspan></text></g></svg>